<svg height="512" viewBox="0 0 512 512" width="512" xmlns="http://www.w3.org/2000/svg"><g id="Filled_outline" data-name="Filled outline"><path d="m216 112-80 40-40 72 24 8 40-56 72-32z" fill="#9c70af"/><path d="m96 224-16 32 24 16 16-40z" fill="#fec9a3"/><path d="m248 32h-44.611a56 56 0 0 0 -44.2 21.619l-39.189 50.381h21.771a56 56 0 0 0 43.02-20.15l23.209-27.85h40z" fill="#f79d16"/><path d="m280 72-8 8v16h-24v16h-40l8-32 .56-2.23a32 32 0 1 1 55.44-21.77z" fill="#fec9a3"/><path d="m208 112-48 136h72v-40l8-16a32 32 0 0 0 32-32l-24-48z" fill="#9c70af"/><path d="m255.7 28.11c-1.23 10.61-7.52 39.02-39.7 51.89l.56-2.23a32 32 0 0 1 39.14-49.66z" fill="#ffa912"/><path d="m232 248 64 200-24 16-72-176-48 88-88 64-16-24 72-64 40-104z" fill="#cc6395"/><path d="m189.732 137.747 39.668 74.377a24 24 0 0 0 31.108 10.555l67.492-30.679-8-24-64 24-35.161-70.322a17.509 17.509 0 0 0 -15.659-9.678 17.508 17.508 0 0 0 -15.448 25.747z" fill="#b281c7"/><path d="m320 168 8-16 32-16 8 40-40 16z" fill="#fec9a3"/><path d="m329.605 448h-33.605l-24 16 8 24 53.238-19.964a10.348 10.348 0 0 0 5.622-14.316 10.347 10.347 0 0 0 -9.255-5.72z" fill="#d6d6d4"/><path d="m48 416-24 16 29.384 51.421a9.085 9.085 0 0 0 7.889 4.579 9.088 9.088 0 0 0 8.964-10.581l-6.237-37.419z" fill="#d6d6d4"/><path d="m265.352 328h-76.686a11.314 11.314 0 0 1 -11.314-11.314 11.314 11.314 0 0 1 3.314-8l28.686-28.686h-33.352a40 40 0 0 0 -34.3 19.42 40 40 0 0 0 0 41.16 40 40 0 0 0 34.3 19.42h89.352z" fill="#f7a116"/><path d="m304 408-16 32 32 32v16h-32l-40-40v-40z" fill="#f98500"/><path d="m392 408v40l-40 40h-32v-16l32-32v-32z" fill="#f98500"/><path d="m464 304-8-16h-32l-56 40h-115.827a36.173 36.173 0 0 0 -36.173 36.173v43.827l-36.333 40 12.333 40h32l-8-34.333 24-21.667a40 40 0 0 0 36.662-24h75.338v32l64 16 32 32h32l-40-56-48-16v-8l64-72h16a16 16 0 0 0 16-16v-16z" fill="#ffb531"/><path d="m488 296h-19.056l-5.789-11.578a8 8 0 0 0 -7.155-4.422h-32a8.1 8.1 0 0 0 -4.575 1.445l-53.988 38.555h-102l-23.437-73.25v-15.75a32.182 32.182 0 0 0 10.639 1.818 31.807 31.807 0 0 0 13.179-2.858l107.153-46.534a8 8 0 0 0 4.874-9l-8-40a8 8 0 0 0 -11.423-5.586l-32 16a8 8 0 0 0 -3.577 3.577l-6.6 13.191-37.417 14.031a39.946 39.946 0 0 0 3.172-15.639 7.994 7.994 0 0 0 -.845-3.578l-23.155-46.311v-6.111h16a8 8 0 0 0 8-8v-12.687l5.657-5.656a8 8 0 0 0 1.5-9.235l-7.2-14.41a40.162 40.162 0 0 0 -12.667-27.264 39.873 39.873 0 0 0 -51.21-2.748h-12.69a63.6 63.6 0 0 0 -50.525 24.709l-39.18 50.38a8 8 0 0 0 6.315 12.911h21.77a63.826 63.826 0 0 0 49.166-23.028l13.007-15.608a39.769 39.769 0 0 0 3.872 6.391l-6.121 24.482a25.268 25.268 0 0 0 -18.387 12.147 25.981 25.981 0 0 0 -1.942 3.99l-48.943 24.471a7.989 7.989 0 0 0 -3.415 3.27l-56.162 104.307a8 8 0 0 0 2.717 10.234l24 16a8 8 0 0 0 11.866-3.685l15.641-39.1 38.174-53.443 11.174-4.968-63.186 169.852-70.131 62.341-23.538 15.691a8 8 0 0 0 -2.508 10.625l29.384 51.422a17.086 17.086 0 0 0 31.689-11.291l-5.427-32.538 84-61.092a8 8 0 0 0 2.316-2.638l7.03-12.881a47.982 47.982 0 0 0 9.954 1.049h32v36.909l-34.255 37.712a8 8 0 0 0 -1.724 7.736l12.334 40a8 8 0 0 0 7.645 5.643h32a8 8 0 0 0 7.792-9.815l-6.931-29.741 15.139-13.667v5.223a8 8 0 0 0 2.343 5.657l26.665 26.664 3.4 10.209c2.195 6.585 8.326 5.648 14 5.679 5.454.029 61.3-.179 65.586-.209a8 8 0 0 0 5.657-2.343l35.2-35.2 19.056 4.765 30.433 30.433a8 8 0 0 0 5.66 2.345h32a8 8 0 0 0 6.51-12.649l-40-56a8 8 0 0 0 -3.98-2.941l-41.977-13.991 59.039-66.419h12.408a24.028 24.028 0 0 0 24-24v-16a8 8 0 0 0 -8-8zm-322.506-40h60.666l20.481 64h-24.91l-11.921-29.141 5.2-5.2a8 8 0 0 0 -5.66-13.659h-33.35a47.782 47.782 0 0 0 -18.025 3.55zm33.472 50.609 5.478 13.391h-12.783zm155.243-158.769 4.641 23.2-25.944 10.377-4.269-12.807 5.326-10.651zm-96.94 28.809-18.114-36.227-10.211-20.422h14.112l20.881 41.762a23.8 23.8 0 0 1 -6.668 14.887zm13-106.229-3.923 3.923a8 8 0 0 0 -2.346 5.657v8h-16a8 8 0 0 0 -8 8v8h-21.754l4.554-18.219a68.665 68.665 0 0 0 37.7-42.281 23.778 23.778 0 0 1 3.5 12.5 7.994 7.994 0 0 0 .845 3.578zm-32-38.36a24.252 24.252 0 0 1 8.544.914 53.917 53.917 0 0 1 -26.813 36.286 24 24 0 0 1 18.274-37.2zm-59.625 46.669a47.866 47.866 0 0 1 -36.874 17.271h-5.414l29.144-37.468a47.7 47.7 0 0 1 37.86-18.532 39.332 39.332 0 0 0 -3.231 12.751c0 .07-.006.14-.012.21zm18.383 45.887a9.311 9.311 0 0 1 8.153-4.616 9.458 9.458 0 0 1 8.5 5.256l11.16 22.32 24 48a8 8 0 0 0 9.964 3.912l56.227-21.085 3.1 9.292-60.931 27.705a16.034 16.034 0 0 1 -20.739-7.037l-39.671-74.381a9.312 9.312 0 0 1 .237-9.366zm-96.793 135.258-9.92-6.613 9.738-19.477 9.369 3.123zm56.516-91.184a8 8 0 0 0 -3.26 2.66l-36.565 51.192-9.25-3.084 34.117-61.409 39.449-19.725a26.058 26.058 0 0 0 1.431 3.188l3.87 7.257-2.794 7.917zm40-.777 25.588 47.976c.507.951 1.071 1.853 1.659 2.733v21.378h-52.69zm-134.65 311.703a1.115 1.115 0 0 1 -1.773-.163l-25.676-44.938 11.13-7.421 10.61 15.915 5.954 35.725a1.048 1.048 0 0 1 -.245.882zm3.931-50.987-7.516-11.275 66.8-59.375a8.009 8.009 0 0 0 2.152-3.107l5.363-13.945c.621 1.282 1.278 2.548 2.014 3.776a48.206 48.206 0 0 0 16.231 16.29l-5.236 9.6zm98.869-78.609a33.387 33.387 0 0 1 -4.665-2.17 32 32 0 0 1 15.765-59.85h14.047l-15.006 15.007a19.312 19.312 0 0 0 13.629 32.993h29.505c-.719.866-1.418 1.751-2.074 2.677-.063.089-.125.179-.184.271a44.159 44.159 0 0 0 -6.189 13.052h-33.728a32.059 32.059 0 0 1 -11.1-1.98zm91.1 94.667v-7.44a48.259 48.259 0 0 0 25.558-21.247h9.5l-6.891 13.782c-.039.077-.077.156-.112.234l-3.206 6.4a8 8 0 0 0 1.5 9.239l29.651 29.658v4.687h-20.687zm88-28.687v20.687l-5.578 5.577a18.3 18.3 0 0 0 -8.812-2.264h-27.77l-1.91-5.971 9.014-18.029zm-24 44.686-4.686-4.686h9.372zm28.686 19.314h-20.686v-4.687l26.454-26.454 20.3 5.075zm131.314-160a8.009 8.009 0 0 1 -8 8h-16a8 8 0 0 0 -5.979 2.686l-54.502 61.314h-11.519v24a8 8 0 0 0 5.47 7.59l45.53 15.177 29.455 41.233h-13.142l-29.656-29.657a8.008 8.008 0 0 0 -3.717-2.1l-57.94-14.489v-49.754h-16v16h-56.68a48.168 48.168 0 0 0 .68-8v-16h-16v16a32.036 32.036 0 0 1 -32 32 8 8 0 0 0 -5.361 2.062l-24 21.667a8 8 0 0 0 -2.431 7.753l5.713 24.518h-16.016l-9.25-30 33.267-36.623a8 8 0 0 0 2.078-5.377s.062-46.015.188-47.086a28.09 28.09 0 0 1 4.971-12.981q.077-.109.15-.219a28.247 28.247 0 0 1 22.861-11.714h115.83a8 8 0 0 0 4.65-1.49l23.65-16.892a22.937 22.937 0 0 0 1.388 4.713 22.142 22.142 0 0 0 36.113 7.184l11.858-11.858-11.314-11.314-11.86 11.857a6.1 6.1 0 0 1 -4.343 1.8 6.142 6.142 0 0 1 -4.343-10.485l13.514-13.515h23.743l5.789 11.578a8 8 0 0 0 7.155 4.422h16z"/></g></svg>