<?xml version="1.0" standalone="no"?><svg xmlns="http://www.w3.org/2000/svg" viewBox="0 0 1440 320"><path fill="#ffa45b" fill-opacity="1" d="M0,128L20,122.7C40,117,80,107,120,112C160,117,200,139,240,138.7C280,139,320,117,360,101.3C400,85,440,75,480,58.7C520,43,560,21,600,16C640,11,680,21,720,26.7C760,32,800,32,840,58.7C880,85,920,139,960,186.7C1000,235,1040,277,1080,293.3C1120,309,1160,299,1200,288C1240,277,1280,267,1320,266.7C1360,267,1400,277,1420,282.7L1440,288L1440,320L1420,320C1400,320,1360,320,1320,320C1280,320,1240,320,1200,320C1160,320,1120,320,1080,320C1040,320,1000,320,960,320C920,320,880,320,840,320C800,320,760,320,720,320C680,320,640,320,600,320C560,320,520,320,480,320C440,320,400,320,360,320C320,320,280,320,240,320C200,320,160,320,120,320C80,320,40,320,20,320L0,320Z"></path></svg>